<?xml version="1.0" standalone="no"?>
<!DOCTYPE svg PUBLIC "-//W3C//DTD SVG 1.1//EN" "http://www.w3.org/Graphics/SVG/1.1/DTD/svg11.dtd">
<svg width="100%" height="100%" viewBox="0 0 26 26" version="1.1" xmlns="http://www.w3.org/2000/svg" xmlns:xlink="http://www.w3.org/1999/xlink" xml:space="preserve" style="fill-rule:evenodd;clip-rule:evenodd;stroke-linejoin:round;stroke-miterlimit:1.41421;">
    <g id="surface1" transform="matrix(1,0,0,-1,0,25)">
        <path d="M4.5,0.188C2.672,0.188 1.188,1.672 1.188,3.5C1.188,5.328 2.672,6.813 4.5,6.813C6.328,6.813 7.813,5.328 7.813,3.5C7.813,1.672 6.328,0.188 4.5,0.188ZM13.5,0.188C11.672,0.188 10.188,1.672 10.188,3.5C10.188,5.328 11.672,6.813 13.5,6.813C15.328,6.813 16.813,5.328 16.813,3.5C16.813,1.672 15.328,0.188 13.5,0.188ZM22.5,0.188C20.672,0.188 19.188,1.672 19.188,3.5C19.188,5.328 20.672,6.813 22.5,6.813C24.328,6.813 25.813,5.328 25.813,3.5C25.813,1.672 24.328,0.188 22.5,0.188ZM13.5,9.188C11.672,9.188 10.188,10.672 10.188,12.5C10.188,14.328 11.672,15.813 13.5,15.813C15.328,15.813 16.813,14.328 16.813,12.5C16.813,10.672 15.328,9.188 13.5,9.188ZM22.5,9.188C20.672,9.188 19.188,10.672 19.188,12.5C19.188,14.328 20.672,15.813 22.5,15.813C24.328,15.813 25.813,14.328 25.813,12.5C25.813,10.672 24.328,9.188 22.5,9.188ZM22.5,18.188C20.672,18.188 19.188,19.672 19.188,21.5C19.188,23.328 20.672,24.813 22.5,24.813C24.328,24.813 25.813,23.328 25.813,21.5C25.813,19.672 24.328,18.188 22.5,18.188Z" style="fill:black;fill-rule:nonzero;"/>
    </g>
</svg>
